<svg xmlns="http://www.w3.org/2000/svg" id="logosandtypes_com" viewBox="0 0 150 150.2">
    <style>.st1{fill:#34485C}</style>
    <g id="Layer_3_1_">
        <g id="Layer_2_1_">
            <path id="Layer_3" d="M0 .2h150v150H0V.2z" fill="none"/>
        </g>
    </g>
    <g id="wise_group">
        <path class="st1"
              d="M69.8 72.5c-1.8 10.1-3.7 20.2-6.6 30-.7 2.5-1.6 4.9-2.8 7.3-.7 1.5-2.2 2.4-3.9 2.3H42.9c-2.8 0-4.5-1.8-5.9-4-1.5-2.5-2.1-5.2-2.9-7.9-3.7-12.3-7.4-24.6-11-36.9-1.8-5.9-3.4-11.9-5.4-17.8-.4-1.4-1.1-2.7-1.9-3.8-1.4-1.8-2.6-1.8-3.8.2-1.4 2.4-2.6 5-3.6 7.5-1.8 4.2-3.4 8.5-4.9 12.8l7.8 12.6 5.9-13.3L12 79.3 1 62.1c2.3-7 4.4-14.1 8-20.6 1.2-2.2 2.9-3.3 5.4-3.3 4.7 0 9.4-.1 14.1 0 2.2 0 3.3 1.8 4.4 3.5 1.4 2.2 2 4.8 2.8 7.3 4.6 15.4 9.2 30.7 13.7 46.1 1.1 3.6 1.9 7.2 3.4 10.6.6 1.3 1.4 2.5 2.5 3.4 1.6 1.3 3.2.9 4.1-.9 2-4.2 3.1-8.7 4.4-13.1 2.6-9.5 6.4-24.9 6-22.6z"/>
        <path class="st1"
              d="M52.9 79.1c1.8-10.5 3.7-20.9 7-31 .7-2.2 1.6-4.3 2.5-6.3 1.1-2.3 3-3.3 5.4-3.4h14.1c1.4 0 2.4.9 3.2 1.8 1.6 2 2.8 4.4 3.3 6.9 4.5 17.1 9.1 34.2 13.6 51.4.8 3.1 1.5 6.3 2.9 9.2.3.6.7 1.2 1.1 1.8 1 1.2 2.3 1 2.9-.4 1.4-3.2 2.5-6.6 3.5-9.9 3.3-10 6.4-20.1 9.5-30.2.3-.9-6.3 25.9-11.1 38.8-.4 1.1-.9 2.2-1.5 3.2-.4.8-1.2 1.3-2 1.2-4.8 0-9.7.1-14.5 0-1.5 0-2.5-1.2-3.4-2.4-1.7-2.2-2.5-4.8-3.2-7.4-4.1-15.7-8.3-31.4-12.5-47.1-.9-3.3-1.6-6.7-2.8-9.9-.5-1.3-1.1-2.6-2-3.7-1.1-1.4-2.2-1.4-3.4-.2-1.6 1.6-2.5 3.7-3.4 5.7-2.4 5.5-4 11.3-5.5 17.1-1.3 4.8-2.4 9.7-3.4 14.5 0 .1-.1.3-.2.4l-.1-.1z"/>
        <path class="st1"
              d="M102.3 83.9c2.2-9.9 4.8-19.8 8.4-29.3 1.6-4.2 3.4-8.3 6-11.9l.1-.1c1.9-3 4.7-4.2 8.2-4.2h13.8c1.5 0 2.5.9 3.4 1.9 2.2 2.5 3.1 5.6 3.7 8.8 1 5.2 2.1 10.4 3.2 15.6l-16.6 13.2c-.2-1.7-.4-3.1-.6-4.6-.9-8.1-1.8-16.2-2.9-24.2-.2-2.6-1.2-5-2.7-7.1-1.7-2.2-3.8-2.4-5.8-.5-2.1 1.9-3.5 4.4-4.8 6.9-3.4 6.6-6 13.5-8.4 20.5-1.7 5-3.3 10-5 15z"/>
    </g>
</svg>